<?xml version="1.0" standalone="no"?>
<!DOCTYPE svg PUBLIC "-//W3C//DTD SVG 20010904//EN"
 "http://www.w3.org/TR/2001/REC-SVG-20010904/DTD/svg10.dtd">
<svg version="1.0" xmlns="http://www.w3.org/2000/svg"
 width="3840.000000pt" height="2160.000000pt" viewBox="0 0 3840.000000 2160.000000"
 preserveAspectRatio="xMidYMid meet">

<g transform="translate(0.000000,2160.000000) scale(0.100000,-0.100000)"
fill="#000000" stroke="none">
<path d="M19796 15615 c4 -8 1 -15 -5 -15 -6 0 -11 4 -11 8 0 4 -15 8 -32 7
-24 0 -36 -6 -43 -22 -7 -17 -15 -21 -37 -16 -20 4 -28 1 -28 -8 0 -8 -7 -23
-16 -34 -13 -17 -16 -18 -25 -5 -9 12 -10 11 -4 -5 3 -11 7 -24 8 -29 3 -16
-35 -19 -44 -4 -7 10 -9 9 -9 -4 0 -9 -8 -19 -17 -21 -11 -3 -7 -5 10 -6 29
-1 37 -15 13 -24 -7 -3 -19 0 -25 6 -8 8 -11 4 -11 -14 0 -17 8 -30 23 -37 21
-11 21 -12 -7 -9 -40 3 -44 -18 -6 -32 25 -8 30 -15 25 -30 -5 -16 1 -22 32
-32 21 -6 48 -18 59 -26 12 -8 26 -13 30 -12 14 3 62 -19 71 -33 4 -7 30 -14
58 -15 113 -4 141 -7 160 -20 28 -19 49 -17 41 4 -6 16 -6 16 11 0 12 -10 30
-15 51 -12 18 2 32 0 32 -5 0 -6 -4 -10 -10 -10 -18 0 -11 -17 9 -23 29 -7 48
8 33 26 -10 12 -9 16 4 21 23 9 22 9 27 -31 l4 -38 1 43 c2 31 6 42 18 42 20
0 15 51 -5 58 -10 3 -12 0 -8 -12 9 -24 -6 -20 -22 6 -10 16 -10 23 -2 26 17
6 13 30 -6 41 -17 9 -17 11 2 25 11 9 14 16 8 16 -7 0 -13 11 -13 25 0 19 -5
25 -16 23 -12 -2 -20 9 -28 35 -6 22 -14 36 -18 32 -3 -4 -14 5 -23 19 -10 14
-26 26 -36 26 -11 0 -19 6 -19 13 0 6 -11 24 -24 39 -19 22 -30 26 -57 22 -23
-3 -29 -2 -21 4 11 7 6 12 -19 21 -48 16 -90 15 -83 -4z m-16 -25 c0 -5 -4
-10 -10 -10 -5 0 -10 5 -10 10 0 6 5 10 10 10 6 0 10 -4 10 -10z"/>
<path d="M20010 15546 c0 -9 5 -16 10 -16 6 0 10 4 10 9 0 6 -4 13 -10 16 -5
3 -10 -1 -10 -9z"/>
<path d="M19840 13809 c-80 -20 -289 -37 -477 -40 l-121 -2 1 -31 c0 -17 -3
-38 -7 -47 -6 -13 8 -17 91 -28 129 -15 408 -21 505 -11 118 13 133 17 135 43
3 50 11 81 22 85 6 2 11 12 11 22 0 17 -8 19 -62 18 -35 0 -79 -5 -98 -9z"/>
<path d="M17380 11450 c-424 -48 -774 -415 -856 -898 -23 -133 -15 -375 16
-482 59 -205 209 -383 391 -464 138 -60 363 -77 494 -36 299 94 534 368 632
737 23 86 26 118 27 263 1 189 -17 283 -79 416 -75 162 -214 327 -340 402 -44
27 -63 42 -50 43 20 0 20 0 -1 9 -32 13 -162 19 -234 10z m317 -312 c118 -55
173 -205 126 -344 -25 -74 -113 -157 -188 -179 -180 -53 -337 80 -323 274 15
205 210 332 385 249z"/>
<path d="M17733 11391 c81 -42 107 -52 72 -27 -39 27 -91 53 -120 60 -16 4 5
-11 48 -33z"/>
<path d="M20972 11399 c-121 -16 -423 -128 -491 -180 -32 -25 -20 -24 26 2 34
20 123 49 148 49 6 0 -6 -10 -25 -21 -90 -55 -248 -210 -315 -310 -109 -163
-156 -328 -156 -552 0 -328 118 -610 344 -822 l89 -84 -2189 -1 c-1203 0
-2271 -5 -2373 -10 -194 -9 -269 -24 -307 -60 -28 -25 -59 -128 -74 -245 -13
-99 -14 -914 -3 -2557 3 -516 3 -960 -1 -986 -6 -45 -8 -48 -38 -50 -18 -2
-34 -7 -35 -13 -6 -15 -32 10 -32 31 0 28 -48 166 -86 249 -19 42 -73 146
-120 232 -138 255 -141 270 -154 729 -10 344 -20 418 -77 522 -94 173 -321
256 -486 178 -83 -39 -128 -104 -187 -265 -18 -49 -42 -101 -55 -113 -22 -23
-24 -23 -54 -8 -17 9 -31 20 -31 25 0 5 -14 11 -30 15 -17 3 -63 20 -102 37
-98 43 -182 55 -265 40 -140 -26 -208 -93 -257 -251 -10 -30 -21 -64 -25 -75
-5 -11 -19 -53 -32 -94 -13 -41 -32 -79 -41 -85 -24 -15 -61 8 -85 53 l-19 36
-92 0 -91 0 -46 -45 c-25 -25 -56 -63 -69 -85 -50 -86 -108 -313 -100 -392 7
-73 66 -142 184 -219 38 -24 71 -44 73 -44 2 0 67 -29 143 -65 77 -36 148 -70
159 -75 211 -94 289 -138 355 -201 44 -42 133 -160 225 -299 39 -58 73 -106
78 -108 4 -2 7 -8 7 -14 0 -6 14 -34 32 -62 17 -28 42 -71 56 -96 67 -122 177
-227 265 -251 42 -12 681 -16 847 -6 41 3 108 5 148 6 50 1 72 5 72 14 0 9
-52 12 -228 12 -125 0 -254 2 -286 5 l-60 5 88 44 c49 24 114 63 146 87 77 57
152 169 185 279 15 47 30 87 36 90 5 4 9 2 9 -3 0 -5 12 -10 28 -10 59 -3 65
-8 82 -58 9 -27 19 -53 21 -59 2 -5 -3 -21 -10 -34 -21 -37 -9 -162 19 -201
17 -24 18 -30 6 -30 -9 0 -13 -6 -10 -14 3 -9 -6 -19 -24 -27 -25 -11 -28 -16
-18 -31 6 -10 22 -18 36 -18 22 -1 23 -2 8 -11 -31 -18 -22 -38 17 -36 19 1
35 7 35 12 0 6 5 3 10 -5 8 -12 13 -13 29 -3 13 8 22 9 26 3 6 -10 58 -14 67
-5 3 3 82 7 175 9 94 3 197 7 229 10 112 11 1568 19 3939 23 1309 2 2390 4
2403 5 13 0 35 6 49 13 l25 13 -54 51 c-29 28 -56 51 -60 51 -5 0 -8 6 -8 14
0 8 -6 21 -14 29 -8 8 -16 22 -18 33 -2 15 4 19 41 22 25 1 76 -2 115 -8 59
-9 82 -18 136 -56 36 -26 107 -74 159 -107 87 -57 92 -61 70 -71 -20 -8 -13
-11 46 -18 147 -18 865 18 850 43 -6 9 -111 14 -257 12 l-118 -2 173 168 c287
281 419 391 528 439 73 33 119 45 378 102 352 78 421 101 529 182 60 45 90 87
122 175 32 87 26 215 -13 294 -57 118 -132 177 -258 205 -41 9 -79 21 -85 25
-6 5 -14 46 -17 91 -9 131 -62 255 -136 321 -47 42 -138 89 -200 103 -75 18
-139 17 -244 -3 -60 -11 -91 -13 -98 -6 -6 6 -15 44 -20 84 -19 140 -110 283
-216 342 -57 30 -151 57 -203 57 -57 0 -151 -29 -203 -62 -53 -34 -122 -118
-154 -188 -36 -80 -97 -261 -119 -354 -4 -16 -13 -41 -20 -55 -8 -14 -14 -34
-14 -45 0 -10 -16 -51 -36 -90 -20 -39 -48 -100 -61 -136 -36 -94 -95 -220
-104 -220 -4 0 -10 -8 -14 -17 -3 -10 -26 -40 -51 -68 -59 -64 -207 -234 -262
-301 -68 -83 -151 -223 -171 -288 -10 -34 -22 -95 -26 -136 -7 -72 -8 -76 -32
-78 l-25 -2 7 1869 c6 1476 5 1883 -5 1936 -21 112 -72 164 -182 185 -39 7
-240 13 -521 17 l-457 6 78 76 c92 90 162 171 178 209 7 15 13 23 13 17 1 -5
6 -3 11 5 5 8 7 23 4 33 -3 9 -2 17 3 17 4 0 14 15 22 33 51 119 54 130 52
143 0 6 6 17 14 24 8 7 15 21 15 31 0 10 5 21 10 24 6 4 8 10 5 15 -3 5 0 21
6 37 6 15 12 35 14 43 3 8 12 42 21 75 20 76 17 372 -5 399 -7 9 -11 25 -8 36
3 10 -1 24 -8 30 -8 6 -11 18 -8 26 3 8 1 14 -5 14 -6 0 -13 19 -17 43 -4 23
-20 61 -36 84 -16 23 -29 45 -29 48 0 4 -11 20 -25 37 -14 16 -25 36 -25 44 0
8 -4 14 -9 14 -5 0 -12 11 -15 25 -3 13 -15 29 -26 35 -11 6 -20 17 -20 25 0
8 -16 30 -35 49 -19 20 -35 40 -35 46 0 6 -4 9 -8 6 -5 -3 -23 8 -41 24 -18
17 -39 30 -48 30 -9 0 -21 7 -27 15 -6 9 -23 17 -36 17 -14 1 -41 12 -60 23
-34 21 -150 62 -180 63 -8 1 -35 3 -60 5 -25 2 -69 0 -98 -4z m282 -424 c139
-58 212 -246 151 -391 -23 -56 -82 -112 -143 -135 -135 -50 -275 10 -339 148
-77 167 -1 336 177 394 32 11 109 2 154 -16z m-1534 -2853 c0 -11 -1036 -1032
-1047 -1032 -4 0 -62 54 -128 120 l-120 120 405 400 405 399 243 0 c133 1 242
-3 242 -7z m-209 -946 l-215 -215 212 -207 c117 -113 212 -209 212 -213 0 -3
-111 -5 -247 -4 l-246 1 -214 214 -213 213 212 212 213 213 250 0 250 0 -214
-214z"/>
<path d="M23479 8343 c-1 -5 -1 -11 0 -15 0 -5 -10 -8 -23 -8 -17 0 -30 -10
-45 -35 -11 -19 -27 -35 -36 -35 -9 0 -15 -9 -15 -25 0 -14 -4 -25 -10 -25 -5
0 -16 -16 -24 -35 -8 -19 -22 -38 -30 -41 -9 -3 -13 -10 -10 -16 3 -5 -2 -25
-11 -44 -9 -20 -14 -42 -11 -50 3 -9 -1 -14 -13 -14 -12 0 -22 -13 -31 -40 -7
-22 -15 -38 -18 -35 -6 6 -42 -51 -42 -66 0 -6 5 -7 10 -4 7 4 9 -2 6 -17 -3
-12 -8 -45 -11 -73 -8 -63 -43 -140 -84 -187 -17 -20 -31 -38 -31 -42 0 -8 34
-2 113 19 32 8 73 15 92 15 19 0 37 5 40 10 3 6 16 8 29 4 13 -3 60 8 111 25
49 17 92 28 97 25 4 -3 13 6 20 20 9 21 16 25 39 21 21 -4 33 1 52 25 14 17
35 30 46 30 11 0 26 7 35 15 8 8 19 15 25 15 14 0 15 116 1 125 -5 3 -6 13 -3
21 5 13 7 13 14 2 6 -9 9 -9 9 -1 0 6 -5 15 -10 18 -6 4 -7 11 -4 17 5 7 1 9
-9 5 -20 -7 -36 18 -30 44 4 14 0 19 -13 19 -24 0 -46 44 -31 59 8 8 8 11 0
11 -6 0 -13 9 -16 20 -3 11 -11 19 -18 18 -7 -2 -15 8 -19 22 -4 14 -13 24
-20 22 -8 -2 -10 3 -6 14 9 24 -41 123 -69 136 -14 6 -21 16 -18 24 3 8 -1 14
-11 14 -9 0 -17 -3 -17 -7z m-112 -175 c-3 -8 -6 -5 -6 6 -1 11 2 17 5 13 3
-3 4 -12 1 -19z"/>
<path d="M23101 7833 c-1 -24 4 -43 9 -43 12 0 12 37 0 65 -7 15 -9 10 -9 -22z"/>
<path d="M22943 7488 c-15 -17 -15 -17 18 -1 44 21 45 22 20 20 -12 -1 -29 -9
-38 -19z"/>
<path d="M23048 6402 c-38 -8 -68 -18 -68 -23 0 -4 25 -9 56 -11 55 -3 67 2
88 40 8 14 12 14 -76 -6z"/>
</g>
</svg>
