<?xml version="1.0" standalone="no"?>
<!DOCTYPE svg PUBLIC "-//W3C//DTD SVG 20010904//EN"
 "http://www.w3.org/TR/2001/REC-SVG-20010904/DTD/svg10.dtd">
<svg version="1.0" xmlns="http://www.w3.org/2000/svg"
 width="4096.000000pt" height="2304.000000pt" viewBox="0 0 4096.000000 2304.000000"
 preserveAspectRatio="xMidYMid meet">

<g transform="translate(0.000000,2304.000000) scale(0.100000,-0.100000)"
fill="#000000" stroke="none">
<path d="M19540 23000 c0 -30 4 -40 16 -40 13 0 15 -9 12 -45 l-3 -45 65 -1
c36 -1 68 -1 73 0 4 0 7 -17 7 -39 0 -42 -2 -41 68 -44 12 -1 18 -12 22 -41 5
-38 7 -40 40 -40 34 0 35 -1 40 -45 4 -36 9 -45 25 -46 65 -3 65 -3 65 -33 0
-36 13 -47 61 -50 19 -1 20 -6 17 -71 l-3 -70 48 0 c35 0 47 -4 47 -15 0 -11
11 -15 43 -15 l42 0 0 -48 c0 -72 12 -92 54 -92 l36 0 -2 -72 c-1 -40 0 -67 3
-60 3 6 23 12 45 12 39 0 39 0 39 -40 l0 -40 40 0 40 0 0 -44 0 -45 43 -3 c41
-3 42 -4 45 -40 3 -35 5 -37 40 -40 36 -3 37 -4 40 -45 l3 -43 45 0 44 0 0
-40 0 -40 40 0 c40 0 40 0 40 -39 0 -22 -5 -42 -12 -44 -11 -5 73 -12 95 -8 4
0 7 -17 7 -39 0 -38 1 -40 33 -41 17 -1 35 -1 40 0 4 0 7 -20 7 -45 l0 -46 45
4 45 3 0 -47 0 -48 40 0 40 0 0 -41 c0 -36 3 -40 23 -39 63 6 67 3 67 -45 l0
-45 40 0 40 0 0 -40 0 -40 48 0 47 0 -3 -45 -4 -45 46 0 c25 0 45 -3 45 -7 -1
-5 -1 -23 0 -40 1 -32 3 -33 41 -33 22 0 39 -3 39 -7 -4 -22 3 -106 8 -95 2 7
22 12 44 12 39 0 39 0 39 -40 l0 -40 40 0 40 0 0 -44 0 -45 43 -3 c41 -3 42
-4 45 -40 3 -35 5 -37 40 -40 36 -3 37 -4 40 -45 l3 -43 45 0 44 0 0 -40 0
-40 40 0 c40 0 40 0 40 -39 0 -22 -5 -42 -12 -44 -11 -5 73 -12 95 -8 4 0 7
-17 7 -39 0 -38 1 -40 33 -41 17 -1 35 -1 40 0 4 0 7 -20 7 -45 l0 -46 45 4
45 3 0 -47 0 -48 40 0 40 0 0 -85 0 -85 45 0 45 0 0 -40 0 -40 88 0 87 0 -3
-85 -3 -85 85 0 c47 0 85 -3 85 -7 -4 -24 3 -186 8 -175 3 8 30 12 84 12 l79
0 0 -85 0 -84 83 -3 82 -3 3 -82 3 -83 84 0 85 0 0 -79 c0 -54 -4 -81 -12 -84
-11 -5 151 -12 175 -8 4 0 7 -20 7 -45 l0 -46 45 4 45 3 0 -47 0 -48 40 0 40
0 0 -41 c0 -36 3 -40 23 -39 63 6 67 3 67 -45 l0 -45 40 0 39 0 3 -82 3 -83
43 -3 c42 -3 42 -3 42 -43 0 -39 0 -39 39 -39 42 0 50 -11 52 -80 0 -19 3 -29
6 -22 2 6 22 12 42 12 l38 0 -3 -52 c-2 -29 -1 -47 2 -40 3 6 23 12 45 12 l39
0 0 -45 0 -45 40 0 c40 0 40 0 40 -39 0 -40 0 -40 43 -43 42 -3 42 -3 45 -45
3 -43 3 -43 43 -43 39 0 39 0 39 -40 l0 -40 45 0 45 0 0 -39 c0 -22 -6 -42
-12 -45 -7 -3 11 -4 40 -2 l52 3 0 -38 c0 -20 -6 -40 -12 -42 -7 -3 3 -6 22
-6 69 -2 80 -10 80 -52 0 -39 0 -39 40 -39 38 0 40 -2 41 -30 1 -16 2 -36 3
-42 0 -8 19 -14 44 -16 42 -3 42 -3 42 -43 0 -39 0 -39 40 -39 l40 0 0 -45 0
-45 45 0 45 0 0 -40 c0 -40 0 -40 39 -40 40 0 40 0 43 -42 3 -43 3 -43 46 -46
42 -3 42 -3 42 -43 0 -39 0 -39 39 -39 42 0 50 -11 52 -80 0 -19 3 -29 6 -22
2 6 22 12 42 12 l38 0 -3 -52 c-2 -29 -1 -47 2 -40 3 6 23 12 45 12 l39 0 0
-45 0 -45 40 0 c40 0 40 0 40 -39 0 -40 0 -40 43 -43 42 -3 42 -3 45 -45 3
-43 3 -43 43 -43 39 0 39 0 39 -40 l0 -40 45 0 45 0 0 -39 c0 -22 -6 -42 -12
-45 -7 -3 11 -4 40 -2 l52 3 0 -38 c0 -20 -6 -40 -12 -42 -7 -3 3 -6 22 -6 69
-2 80 -10 80 -52 0 -39 0 -39 40 -39 38 0 40 -2 41 -30 1 -16 2 -36 3 -42 0
-8 19 -14 44 -16 42 -3 42 -3 42 -43 0 -39 0 -39 40 -39 l40 0 0 -45 0 -45 45
0 45 0 0 -87 0 -88 85 4 85 3 0 -41 c0 -41 0 -41 39 -41 42 0 50 -11 52 -80 0
-19 3 -29 6 -22 2 6 22 12 42 12 l38 0 -3 -52 c-2 -29 -1 -47 2 -40 3 6 23 12
45 12 l39 0 0 -45 0 -45 40 0 c40 0 40 0 40 -39 0 -40 0 -40 43 -43 42 -3 42
-3 45 -45 3 -43 3 -43 43 -43 39 0 39 0 39 -40 l0 -40 45 0 45 0 0 -39 c0 -22
-6 -42 -12 -45 -7 -3 11 -4 40 -2 l52 3 0 -38 c0 -20 -6 -40 -12 -42 -7 -3 3
-6 22 -6 80 -2 81 -4 79 -95 -2 -92 -14 -83 109 -85 l62 -1 0 -40 0 -40 40 0
40 0 0 -45 0 -45 45 0 45 0 0 -40 c0 -40 0 -40 39 -40 40 0 40 0 43 -42 2 -34
7 -43 21 -42 14 2 17 -6 17 -42 0 -48 -1 -48 86 -44 46 2 53 -9 55 -80 0 -19
3 -29 6 -22 2 6 22 12 42 12 l38 0 -3 -52 c-2 -29 -1 -47 2 -40 3 6 23 12 45
12 l39 0 0 -70 0 -70 40 0 c28 0 40 -4 40 -14 0 -10 14 -16 43 -18 l42 -3 3
-67 3 -68 40 0 41 0 -4 -60 -3 -59 45 -3 c39 -3 45 -6 44 -25 0 -20 4 -23 43
-23 24 0 42 -3 42 -7 -1 -5 -1 -32 0 -60 l1 -53 46 0 46 0 -3 -42 -3 -43 43 2
42 1 -3 -41 c-3 -45 -7 -43 70 -46 19 -1 22 -6 22 -46 l0 -45 40 0 40 0 0 -40
0 -40 45 0 45 0 0 -49 0 -49 42 2 42 1 -3 -41 -2 -42 45 5 46 6 0 -47 0 -46
49 0 48 0 -3 -52 c-2 -29 -1 -47 2 -40 3 6 23 12 43 12 l38 0 -5 -48 -4 -47
46 3 46 4 0 -41 0 -41 40 0 40 0 0 -45 0 -45 45 0 45 0 0 -40 0 -40 41 0 41 0
-4 -46 -3 -46 47 4 48 5 0 -38 c0 -20 -6 -40 -12 -43 -7 -3 11 -4 40 -2 l52 3
0 -48 0 -49 46 0 46 0 -3 -42 -3 -43 43 2 42 1 -3 -41 c-3 -45 -7 -43 70 -46
19 -1 22 -6 22 -46 l0 -45 40 0 40 0 0 -40 0 -40 45 0 45 0 0 -49 0 -49 42 2
42 1 -3 -41 -2 -42 45 5 46 6 0 -47 0 -46 49 0 48 0 -3 -52 c-2 -29 -1 -47 2
-40 3 6 23 12 43 12 l38 0 -5 -48 -4 -47 46 3 46 4 0 -41 0 -41 40 0 40 0 0
-85 0 -85 86 0 85 0 -3 -86 -3 -86 87 4 87 3 3 -90 3 -90 82 0 82 0 3 -85 3
-85 83 -3 82 -3 0 -84 0 -85 63 -1 c119 -2 112 1 109 -45 l-3 -42 45 5 46 6 0
-47 0 -46 49 0 48 0 -3 -52 c-2 -29 -1 -47 2 -40 3 6 23 12 43 12 l38 0 -5
-48 -4 -47 46 3 46 4 0 -86 0 -86 86 0 85 0 -3 -86 -3 -86 43 4 44 3 -4 -42
-3 -42 45 -3 45 -3 3 -42 c3 -40 4 -42 40 -45 35 -3 37 -5 42 -43 5 -40 5 -40
48 -39 l43 1 -2 -41 -3 -41 41 1 42 2 3 -47 3 -46 43 -3 c42 -3 42 -3 42 -43
0 -39 0 -39 40 -39 l40 0 0 -45 c0 -40 3 -45 23 -46 76 -3 72 -1 69 -46 l-3
-41 42 1 42 2 1 -40 c1 -40 1 -40 46 -45 25 -3 44 -8 43 -12 -2 -5 -3 -21 -3
-37 0 -28 3 -30 43 -33 l42 -3 3 -45 3 -45 42 3 42 4 -3 -44 -4 -43 46 3 46 4
0 -46 0 -46 40 0 40 0 0 -40 0 -40 46 0 46 0 -4 -46 -3 -46 43 4 44 3 -4 -42
-3 -42 45 -3 45 -3 3 -42 c3 -40 4 -42 40 -45 35 -3 37 -5 42 -43 5 -40 5 -40
48 -39 l43 1 -2 -41 -3 -41 41 1 42 2 3 -47 3 -46 43 -3 c42 -3 42 -3 42 -43
0 -39 0 -39 40 -39 l40 0 0 -45 c0 -40 3 -45 23 -46 76 -3 72 -1 69 -46 l-3
-41 42 1 42 2 1 -40 c1 -40 1 -40 46 -45 25 -3 44 -8 43 -12 -2 -5 -3 -21 -3
-37 0 -28 3 -30 43 -33 l42 -3 3 -45 3 -45 42 3 42 4 -3 -86 -3 -86 85 0 86 0
0 -86 0 -85 86 3 86 3 -4 -42 -3 -42 45 -3 45 -3 3 -42 c3 -40 4 -42 40 -45
35 -3 37 -5 42 -43 5 -40 5 -40 48 -39 l43 1 -2 -41 -3 -41 41 1 42 2 3 -47 3
-46 43 -3 c42 -3 42 -3 42 -43 0 -39 0 -39 40 -39 l40 0 0 -45 c0 -40 3 -45
23 -46 77 -3 70 5 68 -86 l-2 -83 85 0 c47 0 85 -3 85 -7 -1 -5 -1 -22 0 -40
1 -30 3 -32 44 -35 l42 -3 3 -45 3 -45 42 3 42 4 -3 -44 -4 -43 46 3 46 4 0
-46 c0 -34 4 -46 15 -46 11 0 15 -11 15 -40 l0 -40 71 0 71 0 -4 -46 -3 -46
43 4 44 3 -4 -42 -3 -42 45 -3 45 -3 3 -89 3 -88 85 3 85 4 -1 -45 c-3 -89 -2
-92 28 -90 44 3 49 1 55 -20 4 -16 14 -20 47 -20 l42 0 -4 -65 c-3 -70 -1 -72
65 -67 14 2 17 -7 17 -58 0 -55 2 -60 23 -61 76 -3 72 -1 68 -47 l-3 -42 41 0
41 0 0 -40 0 -40 45 0 c25 0 44 -3 44 -7 -1 -5 -1 -26 0 -49 l1 -41 48 5 47 4
-3 -44 -4 -43 44 3 43 4 -3 -46 -4 -46 46 0 46 0 0 -40 0 -40 40 0 40 0 0 -46
0 -46 46 4 46 3 -4 -43 -3 -44 43 4 44 3 -4 -47 -5 -47 46 -3 46 -3 3 -43 c3
-42 3 -42 43 -42 l39 0 0 -41 0 -42 45 5 45 6 0 -49 0 -49 40 0 40 0 0 -40 0
-40 45 0 45 0 0 -45 c0 -47 6 -51 63 -46 14 2 17 -6 17 -38 0 -36 3 -41 23
-42 76 -3 72 -1 68 -46 l-3 -43 41 0 41 0 0 -40 0 -40 45 0 c25 0 44 -3 44 -7
-1 -5 -1 -26 0 -49 l1 -41 48 5 47 4 -3 -44 -4 -43 44 3 43 4 -3 -46 -4 -46
46 0 46 0 0 -40 0 -40 40 0 40 0 0 -46 0 -46 46 4 46 3 -4 -43 -3 -44 43 4 44
3 -4 -47 -5 -47 46 -3 46 -3 3 -82 3 -83 40 0 41 0 -4 -45 -3 -45 87 0 88 0 0
-85 c0 -96 -12 -87 108 -86 l62 0 0 -87 0 -87 85 3 85 3 0 -85 0 -86 93 0 92
0 -3 -85 -3 -85 85 0 86 0 0 -40 0 -40 40 0 40 0 0 -46 0 -46 46 4 46 3 -4
-43 -3 -44 43 4 44 3 -4 -47 -5 -47 46 -3 46 -3 3 -43 c3 -42 3 -42 43 -42
l39 0 0 -41 0 -42 45 5 45 6 0 -89 0 -89 40 0 40 0 0 -45 c0 -48 5 -52 68 -46
19 2 22 -3 22 -39 0 -42 7 -46 63 -41 14 2 17 -6 17 -46 l0 -48 45 3 45 4 0
-41 0 -41 40 0 40 0 0 -45 0 -45 58 -1 c31 0 51 -3 45 -6 -7 -2 -13 -22 -13
-42 l0 -38 48 5 47 4 -3 -46 -4 -46 41 0 41 0 0 -40 0 -40 45 0 45 0 0 -45 0
-45 40 0 40 0 0 10965 0 10965 -10710 0 -10710 0 0 -40z m1027 -682 c-3 -8 -6
-5 -6 6 -1 11 2 17 5 13 3 -3 4 -12 1 -19z m2106 -2175 c-13 -2 -35 -2 -50 0
-16 2 -5 4 22 4 28 0 40 -2 28 -4z m192 -173 c8 -13 -55 -13 -75 0 -11 7 -4
10 27 10 23 0 45 -4 48 -10z m175 -170 c0 -5 -18 -10 -40 -10 -22 0 -40 5 -40
10 0 6 18 10 40 10 22 0 40 -4 40 -10z m170 -170 c0 -5 -20 -10 -45 -10 -25 0
-45 5 -45 10 0 6 20 10 45 10 25 0 45 -4 45 -10z m170 -170 c0 -13 -70 -13
-90 0 -11 7 0 10 38 10 28 0 52 -4 52 -10z m3420 -3500 c0 -5 -18 -10 -40 -10
-22 0 -40 5 -40 10 0 6 18 10 40 10 22 0 40 -4 40 -10z m160 -170 c0 -5 -18
-10 -40 -10 -22 0 -40 5 -40 10 0 6 18 10 40 10 22 0 40 -4 40 -10z m160 -170
c0 -13 -50 -13 -70 0 -11 7 -4 10 28 10 23 0 42 -4 42 -10z m3600 -3670 c0 -5
-18 -10 -40 -10 -22 0 -40 5 -40 10 0 6 18 10 40 10 22 0 40 -4 40 -10z m167
-160 c-1 -16 -8 -20 -39 -20 -20 0 -40 5 -43 10 -4 6 10 10 34 10 23 0 41 5
41 10 0 6 2 10 4 10 3 0 4 -9 3 -20z m173 -180 c0 -5 -20 -10 -45 -10 -25 0
-45 5 -45 10 0 6 20 10 45 10 25 0 45 -4 45 -10z m175 -170 c4 -6 -12 -10 -39
-10 -25 0 -46 5 -46 10 0 6 18 10 39 10 22 0 43 -4 46 -10z m165 -170 c0 -5
-15 -10 -34 -10 -19 0 -38 5 -41 10 -4 6 10 10 34 10 23 0 41 -4 41 -10z m170
-170 c0 -5 -20 -10 -45 -10 -25 0 -45 5 -45 10 0 6 20 10 45 10 25 0 45 -4 45
-10z m2198 -2307 c-15 -2 -42 -2 -60 0 -18 2 -6 4 27 4 33 0 48 -2 33 -4z
m1042 -1023 c0 -5 -18 -10 -40 -10 -22 0 -40 5 -40 10 0 6 18 10 40 10 22 0
40 -4 40 -10z m159 -171 c-8 -5 -31 -9 -52 -9 -30 0 -35 3 -26 13 7 7 28 11
52 8 27 -2 35 -6 26 -12z m186 -169 c4 -6 -12 -10 -39 -10 -25 0 -46 5 -46 10
0 6 18 10 39 10 22 0 43 -4 46 -10z m3755 -3840 c11 -7 2 -10 -32 -10 -27 0
-48 5 -48 10 0 13 60 13 80 0z m165 -170 c4 -6 -10 -10 -34 -10 -23 0 -41 5
-41 10 0 6 15 10 34 10 19 0 38 -4 41 -10z m175 -170 c0 -5 -20 -10 -45 -10
-25 0 -45 5 -45 10 0 6 20 10 45 10 25 0 45 -4 45 -10z m170 -170 c0 -5 -18
-10 -40 -10 -22 0 -40 5 -40 10 0 6 18 10 40 10 22 0 40 -4 40 -10z m170 -172
c0 -12 -73 -6 -77 7 -2 7 12 9 37 7 22 -2 40 -8 40 -14z"/>
<path d="M43 19632 l-43 -3 0 -9815 0 -9814 9600 0 9600 0 0 46 0 47 -61 -7
-61 -6 4 45 c3 44 2 45 -26 45 -28 0 -29 1 -23 46 l5 47 -65 -6 -64 -5 3 42
c2 38 1 41 -25 44 -21 3 -27 9 -27 28 0 22 -4 24 -50 24 -40 0 -48 3 -44 15 4
9 0 15 -9 15 -12 0 -17 13 -19 48 -3 41 -5 47 -24 44 -16 -2 -23 4 -28 23 -5
21 -12 25 -46 25 -30 0 -40 4 -40 16 0 10 -6 14 -15 10 -12 -4 -15 5 -15 48 0
51 -1 53 -25 48 -22 -4 -25 -1 -25 22 0 24 -3 26 -45 26 l-45 0 0 64 0 64 -45
-6 -45 -5 0 47 0 46 -40 0 c-22 0 -39 3 -39 8 1 4 1 22 0 40 -1 32 -2 32 -50
32 l-48 0 5 48 4 47 -44 -3 -43 -4 3 44 4 43 -46 -3 -46 -4 0 46 0 46 -40 0
-40 0 0 40 0 40 -46 0 -46 0 4 46 3 46 -43 -4 -44 -3 4 43 3 44 -47 -4 -48 -5
0 48 0 48 -37 3 c-36 3 -38 5 -41 41 -3 37 -3 37 -48 37 l-46 0 3 43 c4 45 8
43 -68 46 -20 1 -23 6 -23 41 l0 40 -40 0 -40 0 0 44 0 45 -42 3 c-42 3 -43 4
-46 40 -3 35 -5 37 -40 40 -36 3 -37 4 -40 49 l-3 46 -44 -5 -45 -5 0 47 0 46
-40 0 c-22 0 -39 3 -39 8 1 4 1 22 0 40 -1 32 -2 32 -50 32 l-48 0 5 48 4 47
-44 -3 -43 -4 3 44 4 43 -47 -3 -47 -4 4 88 3 89 -42 3 c-43 3 -43 3 -43 43 0
39 0 39 -40 39 l-40 0 0 45 0 45 -39 0 c-22 0 -42 -6 -45 -12 -3 -7 -4 11 -2
40 l3 52 -63 0 c-62 0 -64 1 -64 25 0 14 -6 25 -12 25 -10 0 -9 3 1 9 11 7 8
13 -13 26 -20 13 -26 26 -26 51 l0 34 -59 0 -60 0 -3 42 c-2 36 -7 44 -25 46
-19 3 -23 10 -23 43 l0 39 -45 0 -45 0 0 48 0 48 -40 -4 -40 -4 0 44 0 43 -47
0 -48 0 4 43 3 42 -41 0 -41 0 -1 53 c0 28 -3 46 -6 40 -5 -14 -84 -18 -82 -5
1 4 1 25 0 48 l-1 41 -52 -3 c-29 -2 -47 -1 -40 2 6 3 12 23 12 43 l0 38 -48
-5 -47 -4 3 46 4 46 -41 0 -41 0 0 40 0 40 -66 0 -66 0 4 46 c3 45 3 46 -25
41 -28 -4 -29 -3 -25 40 l3 43 -63 0 -64 0 4 42 c2 38 0 43 -22 48 -20 5 -26
13 -28 42 l-3 37 -57 3 -57 3 -3 35 c-4 53 -10 66 -24 52 -22 -22 -30 -12 -27
30 4 47 9 45 -83 47 l-38 1 0 49 c0 46 -1 48 -25 43 -23 -4 -25 -2 -25 37 l0
41 -60 0 -60 0 0 48 c0 45 -1 48 -27 47 -26 0 -27 2 -24 43 l3 44 -61 -4 -60
-3 -3 45 c-3 37 -6 45 -23 45 -17 0 -20 8 -23 45 l-3 46 -62 -4 -63 -4 4 40
c4 36 1 41 -20 44 -19 2 -23 10 -26 45 l-3 43 -45 0 -44 0 0 40 0 40 -40 0
-40 0 0 46 0 46 -46 -4 -46 -3 4 43 3 44 -43 -4 -44 -3 4 47 5 47 -46 3 c-45
3 -46 4 -49 40 -3 35 -5 37 -40 40 l-37 3 0 89 0 88 -93 -7 -94 -7 7 90 c7 90
7 90 -16 94 -13 2 -39 0 -57 -5 -18 -4 -47 -7 -65 -5 l-32 3 3 90 3 90 -90 -3
-91 -3 5 86 c4 65 2 85 -8 84 -6 -1 -48 -1 -93 0 l-80 1 7 52 c4 29 8 68 8 86
l1 32 -91 0 -90 0 3 83 3 82 -42 3 -43 3 0 45 0 44 -40 0 -40 0 0 40 c0 40 0
40 -39 40 -22 0 -42 -5 -44 -12 -5 -11 -12 73 -8 95 0 4 -17 7 -39 7 -38 0
-40 1 -41 33 -1 17 -1 35 0 40 0 4 -20 7 -45 7 l-46 0 4 40 3 39 -45 3 -45 3
-3 43 c-3 42 -3 42 -43 42 l-39 0 0 43 0 42 -45 -3 -45 -4 0 49 0 48 -37 0
c-38 0 -38 0 -41 45 l-3 45 -44 -3 -45 -4 0 46 0 46 -60 -5 -60 -5 0 52 c0 31
-4 48 -8 40 -18 -27 -42 -1 -42 44 l0 44 -60 0 -60 0 0 40 c0 36 -3 40 -24 40
-22 0 -25 5 -28 42 l-3 43 -57 -1 -58 -1 0 43 c0 40 -2 44 -25 44 -23 0 -25 4
-25 46 l0 46 -60 -4 -60 -3 0 38 c0 31 -4 39 -25 47 -19 7 -25 17 -26 42 -1
18 -1 37 0 42 1 5 -25 6 -58 3 l-60 -5 -3 36 c-2 28 -9 40 -26 47 -20 9 -23
16 -20 54 l3 43 -62 -5 -63 -5 0 39 c0 32 -4 41 -22 48 -13 5 -26 7 -30 4 -4
-2 -6 17 -5 42 l3 47 -56 -4 c-59 -3 -56 -5 -59 54 -1 21 -6 27 -28 30 -25 3
-28 7 -31 46 l-3 42 -55 0 -54 0 0 40 c0 36 -3 40 -24 40 -18 0 -27 8 -33 27
-9 25 -14 27 -50 25 -37 -3 -41 -1 -36 16 3 12 -1 22 -11 25 -10 4 -16 19 -16
42 0 30 -3 35 -24 35 -18 0 -25 6 -28 23 -2 18 -10 23 -44 25 -36 3 -41 6 -37
23 4 14 0 19 -16 19 -18 0 -21 6 -21 40 0 38 -2 40 -30 40 -29 0 -30 2 -30 45
l0 45 -40 0 -40 0 0 41 0 41 -46 -4 -46 -3 4 47 5 48 -38 0 c-20 0 -40 -6 -43
-12 -3 -7 -4 10 -3 39 l4 52 -46 3 -46 3 -3 43 c-3 42 -3 42 -43 42 -39 0 -39
0 -39 39 0 40 0 40 -42 43 -43 3 -43 3 -46 46 l-3 42 -45 0 -44 0 0 40 0 40
-40 0 -40 0 0 48 0 47 -42 0 -43 0 -3 43 c-3 42 -3 42 -43 42 -39 0 -39 0 -39
39 0 40 0 40 -42 43 l-43 3 -3 46 -3 46 -52 -4 c-29 -1 -46 0 -40 3 7 3 13 23
13 43 l0 38 -48 -5 -47 -4 3 46 4 46 -41 0 -41 0 0 40 0 40 -45 0 -45 0 0 45
0 45 -40 0 -40 0 0 41 0 41 -46 -4 -46 -3 4 47 5 48 -38 0 c-20 0 -40 -6 -43
-12 -3 -7 -4 10 -3 39 l4 52 -46 3 -46 3 1 88 1 89 -86 -4 -86 -3 -3 43 -3 42
-45 0 -45 0 7 85 c7 93 8 92 -58 86 -11 -2 -18 5 -18 16 -1 17 -1 17 -11 1
-19 -33 -29 -18 -29 40 0 37 -3 52 -9 43 -17 -26 -41 -4 -41 37 l0 39 -60 -3
-60 -2 0 44 c0 40 -2 44 -25 44 -23 0 -25 4 -25 45 l0 45 -45 0 -45 0 0 40 0
40 -40 0 -40 0 0 40 0 40 -44 0 -45 0 -3 43 c-3 41 -4 42 -40 45 -35 3 -37 5
-40 40 -3 36 -4 37 -45 40 l-43 3 0 45 0 44 -40 0 -40 0 0 40 c0 40 0 40 -39
40 -22 0 -42 -5 -44 -12 -5 -11 -12 73 -8 95 0 4 -17 7 -39 7 l-40 0 0 43 0
44 -62 -1 -63 -1 -5 40 c-4 32 -9 41 -27 43 -19 3 -23 10 -23 43 l0 39 -58 0
c-49 0 -59 3 -59 18 1 63 -3 72 -28 72 -23 0 -25 3 -25 48 l0 47 -60 -3 -60
-4 0 40 c0 34 -3 41 -22 44 -19 2 -24 10 -26 44 l-3 41 -51 2 c-64 2 -68 5
-68 47 0 33 -8 39 -50 36 -3 0 -3 20 -1 44 l3 44 -61 0 -61 0 0 40 c0 36 -3
40 -24 40 -22 0 -25 5 -28 43 l-3 42 -57 3 -58 3 0 39 c0 32 -4 39 -22 42 -19
2 -24 10 -26 46 l-3 44 -60 -4 -59 -3 0 38 c0 31 -4 39 -25 47 -19 7 -25 17
-26 42 -1 18 -1 37 0 41 1 5 -15 8 -36 7 -78 -4 -83 -2 -83 29 0 28 -21 57
-33 45 -9 -10 -20 43 -15 71 5 24 3 25 -43 25 l-49 0 0 40 0 40 -45 0 -45 0 0
48 0 48 -40 -4 -40 -4 0 49 0 48 -45 -3 -45 -4 0 41 0 41 -40 0 -40 0 0 45 c0
31 -4 45 -12 44 -34 -4 -102 2 -92 9 7 4 15 42 19 85 l7 77 -92 0 -92 0 7 76
c5 59 4 79 -7 85 -7 5 -48 9 -92 9 l-78 0 7 65 c11 102 8 105 -85 105 -53 0
-80 -4 -84 -12 -3 -7 -4 31 -1 85 l5 97 -91 0 -91 0 7 84 7 85 -44 3 -43 3 -3
43 -3 43 -37 -3 c-37 -3 -37 -3 -40 40 -3 40 -4 42 -36 42 -36 0 -67 24 -44
33 10 4 10 6 1 6 -7 1 -13 12 -13 25 0 22 -5 25 -42 28 -43 3 -43 3 -46 46 -3
42 -3 42 -43 42 -39 0 -39 0 -39 40 l0 40 -45 0 -45 0 0 45 0 45 -40 0 -40 0
0 40 0 40 -45 0 -45 0 0 39 c0 41 -11 51 -56 51 -21 0 -24 5 -24 34 0 37 -12
46 -61 46 -25 0 -29 4 -29 29 0 50 -9 61 -51 61 -30 0 -37 3 -33 15 4 8 3 26
0 40 -5 21 -12 25 -46 25 l-40 0 0 45 c0 45 0 45 -34 45 -19 0 -46 -4 -60 -10
-26 -9 -26 -9 -26 40 0 42 -3 50 -19 50 -22 0 -31 19 -31 62 l0 31 -60 -6 -60
-5 0 43 c0 38 -3 44 -22 47 -19 2 -24 10 -26 46 l-3 42 -60 0 -59 0 0 39 c0
35 -3 39 -31 45 -29 6 -31 8 -27 46 l4 40 -62 0 -61 0 4 53 c3 34 1 47 -5 39
-5 -8 -18 -12 -28 -10 -14 2 -20 13 -22 46 -2 26 -8 42 -15 41 -7 -1 -31 -1
-54 0 -43 1 -43 1 -43 40 0 35 -3 39 -30 45 -27 5 -30 9 -30 46 l0 40 -55 0
-55 0 0 40 c0 38 -2 40 -29 40 -28 0 -30 3 -33 43 l-3 42 -52 0 -53 -1 0 43
c0 35 -3 43 -18 43 -23 0 -42 19 -42 42 0 14 -8 18 -40 18 -27 0 -40 4 -40 14
0 7 -9 16 -20 19 -15 4 -20 14 -20 37 0 24 -5 33 -21 37 -12 4 -22 17 -26 34
-5 26 -10 29 -44 29 -28 0 -39 4 -39 15 0 8 -9 15 -20 15 -15 0 -20 7 -20 28
0 17 -10 38 -25 52 -27 26 -32 45 -12 54 6 3 -12 4 -40 2 l-53 -3 0 58 0 58
-42 3 c-42 3 -43 4 -46 42 -1 22 -4 42 -6 43 -2 2 -21 5 -42 6 -38 3 -39 4
-39 42 0 39 -1 40 -40 45 -38 5 -40 7 -45 45 -5 39 -6 40 -45 40 -40 0 -40 0
-43 43 -2 26 -8 42 -15 41 -7 -1 -24 -1 -39 0 -26 1 -28 4 -28 39 0 37 -1 39
-35 40 -49 2 -55 7 -55 53 0 39 0 39 -40 39 l-40 0 0 40 0 40 -44 0 -45 0 -3
43 c-3 41 -4 42 -40 45 -35 3 -37 5 -40 40 -3 36 -4 37 -45 40 l-43 3 0 45 0
44 -40 0 -40 0 0 40 c0 40 0 40 -39 40 -46 0 -49 4 -53 53 -2 36 -3 37 -40 37
-36 0 -38 2 -39 33 -1 17 -1 35 0 40 0 4 -14 7 -33 7 -41 0 -60 20 -54 59 4
29 3 30 -36 33 -39 3 -41 4 -44 40 -3 36 -5 37 -45 40 -41 3 -42 4 -45 42 -1
22 -4 42 -6 43 -2 2 -21 5 -42 6 -38 3 -39 4 -39 42 0 39 -1 40 -40 45 l-40 5
-3 83 -3 82 -84 0 -85 0 0 85 0 85 -41 0 -41 0 4 45 3 45 -47 0 c-48 0 -48 0
-48 34 0 36 -12 46 -57 46 -24 0 -25 2 -21 45 l6 45 -54 0 c-30 0 -54 -4 -54
-10 0 -5 -4 -10 -10 -10 -5 0 -10 23 -10 50 0 46 -2 50 -24 50 -23 0 -25 5
-28 48 l-3 47 -42 -3z m441 -928 c3 -8 2 -12 -4 -9 -6 3 -10 10 -10 16 0 14 7
11 14 -7z m116 -24 c0 -5 -18 -10 -39 -10 -22 0 -43 5 -46 10 -4 6 12 10 39
10 25 0 46 -4 46 -10z m165 -170 c4 -6 -10 -10 -34 -10 -22 0 -43 5 -46 10 -4
6 10 10 34 10 22 0 43 -4 46 -10z m170 -170 c4 -6 -10 -10 -34 -10 -23 0 -41
5 -41 10 0 6 15 10 34 10 19 0 38 -4 41 -10z m185 -170 c0 -16 -77 -16 -94 1
-6 5 10 9 42 9 29 0 52 -4 52 -10z m160 -169 c0 -5 -20 -11 -45 -13 -43 -3
-53 1 -38 15 10 10 83 8 83 -2z m170 -174 c0 -8 -14 -11 -45 -9 -25 2 -45 8
-45 13 0 5 20 9 45 9 29 0 45 -4 45 -13z m2947 -3119 c-3 -8 -6 -5 -6 6 -1 11
2 17 5 13 3 -3 4 -12 1 -19z m4218 -4217 c-16 -15 -68 -17 -72 -3 -3 8 8 12
38 12 26 0 39 -4 34 -9z m181 -169 c-3 -5 -24 -9 -46 -10 -25 -1 -39 2 -35 8
3 6 24 10 46 10 22 0 38 -4 35 -8z m164 -172 c0 -5 -18 -10 -40 -10 -22 0 -40
5 -40 10 0 6 18 10 40 10 22 0 40 -4 40 -10z m170 -165 c0 -11 -12 -15 -45
-15 -57 0 -59 18 -2 23 23 2 43 4 45 5 1 1 2 -5 2 -13z m170 -175 c0 -5 -18
-10 -40 -10 -22 0 -40 5 -40 10 0 6 18 10 40 10 22 0 40 -4 40 -10z m180 -170
c0 -5 -20 -10 -45 -10 -25 0 -45 5 -45 10 0 6 20 10 45 10 25 0 45 -4 45 -10z
m338 -347 c-15 -2 -42 -2 -60 0 -18 2 -6 4 27 4 33 0 48 -2 33 -4z m6989
-7168 c2 -6 -15 -9 -42 -7 -25 2 -45 8 -45 14 0 12 82 6 87 -7z m173 -165 c0
-5 -18 -10 -40 -10 -22 0 -40 5 -40 10 0 6 18 10 40 10 22 0 40 -4 40 -10z
m180 -170 c0 -5 -20 -10 -45 -10 -25 0 -45 5 -45 10 0 6 20 10 45 10 25 0 45
-4 45 -10z m153 -177 c-13 -2 -35 -2 -50 0 -16 2 -5 4 22 4 28 0 40 -2 28 -4z
m185 -170 c-15 -2 -42 -2 -60 0 -18 2 -6 4 27 4 33 0 48 -2 33 -4z m325 -340
c-13 -2 -35 -2 -50 0 -16 2 -5 4 22 4 28 0 40 -2 28 -4z"/>
<path d="M22289 13787 c-52 -47 -762 -754 -1579 -1571 -817 -817 -1488 -1485
-1491 -1484 -4 2 -118 112 -255 246 -203 199 -249 240 -257 227 -5 -9 -6 -19
-3 -22 3 -4 6 -1 6 6 0 7 4 10 9 6 6 -3 6 -17 1 -34 -5 -19 -4 -33 3 -40 8 -8
8 -11 0 -11 -25 0 1 -113 35 -148 6 -7 12 -18 12 -23 0 -5 15 -25 34 -43 18
-19 40 -48 47 -65 8 -17 17 -31 22 -31 4 0 57 -49 117 -110 59 -60 113 -110
119 -110 6 0 11 -7 11 -15 0 -8 12 -21 28 -29 15 -8 40 -26 55 -40 16 -15 33
-23 39 -20 6 4 8 2 4 -4 -7 -11 4 -16 69 -28 42 -8 53 -10 58 -13 9 -6 115 -7
132 -1 11 4 40 14 65 21 25 8 56 25 70 39 40 38 108 90 119 90 6 0 11 5 11 10
0 6 17 28 39 50 21 21 36 41 33 44 -3 3 2 8 11 12 16 6 92 77 99 92 2 4 6 6
10 5 5 -2 8 2 8 9 0 6 28 40 63 74 34 35 71 73 82 84 49 51 83 80 93 80 6 0
25 20 43 45 18 25 38 45 46 45 7 0 13 4 13 8 0 15 57 72 72 72 16 0 49 33 67
68 7 12 16 20 20 17 11 -6 71 61 71 79 0 8 7 12 18 10 11 -3 27 9 46 36 16 22
37 42 45 45 9 3 25 18 36 34 10 16 24 27 29 24 5 -4 7 1 3 10 -4 10 -1 18 6
19 7 0 17 2 22 2 10 1 246 236 237 236 -2 0 10 12 27 28 18 15 54 48 81 75 27
26 51 47 53 47 8 0 67 58 67 65 0 11 93 95 106 95 6 0 16 12 23 26 6 15 14 24
17 21 7 -7 61 46 56 56 -3 7 13 11 31 8 5 -1 6 2 3 7 -5 8 36 62 46 62 3 0 39
33 79 72 41 40 77 72 82 70 4 -1 7 2 7 8 0 14 71 80 86 80 14 0 36 33 29 44
-3 3 -2 4 1 2 3 -3 17 7 30 21 13 14 24 23 24 19 0 -4 26 19 57 51 32 32 57
61 55 66 -1 4 5 7 13 7 8 0 15 7 15 15 0 8 6 15 14 15 19 0 48 29 41 41 -4 5
1 6 9 3 10 -4 20 3 27 20 7 14 20 28 31 31 10 4 18 11 18 16 0 6 4 8 9 4 5 -3
12 4 16 15 4 11 18 28 33 38 14 9 45 38 70 64 24 26 53 50 63 53 11 4 17 11
14 16 -4 5 -1 9 5 9 6 0 8 5 4 12 -4 6 -3 8 3 5 9 -6 63 37 63 51 0 4 23 22
50 41 28 19 50 39 50 45 0 7 10 18 23 26 34 23 107 103 101 112 -3 4 2 11 10
14 9 3 13 10 10 16 -3 5 3 12 15 15 16 4 19 9 11 23 -8 15 -6 20 9 25 26 8 31
33 31 150 0 99 0 100 -35 144 -19 24 -35 41 -35 37 0 -4 -6 -1 -14 6 -8 7 -11
18 -8 23 3 6 2 7 -2 3 -4 -3 -23 0 -42 8 -19 8 -34 11 -34 8 0 -4 -6 -1 -14 5
-26 22 -74 31 -80 15 -3 -8 -11 -14 -18 -13 -10 0 -10 2 0 6 6 2 12 12 12 20
0 13 -3 13 -16 2 -12 -10 -17 -10 -23 0 -6 8 -37 -14 -102 -72z"/>
<path d="M6285 13519 c-4 -6 -5 -12 -2 -15 2 -3 7 2 10 11 7 17 1 20 -8 4z"/>
<path d="M22329 11443 c-2 -4 -31 -30 -64 -58 -33 -27 -462 -450 -953 -940
-490 -489 -899 -890 -907 -890 -8 0 -110 95 -227 211 -117 116 -227 220 -244
232 l-30 21 4 -60 c3 -39 1 -59 -7 -59 -6 0 -11 -5 -11 -11 0 -5 5 -7 10 -4 6
3 11 -4 12 -17 1 -13 2 -30 3 -39 0 -9 9 -29 20 -45 11 -16 20 -33 20 -37 0
-5 8 -14 18 -21 9 -7 17 -18 17 -23 0 -6 34 -45 75 -87 41 -42 75 -80 75 -85
0 -4 18 -20 40 -37 22 -16 40 -34 40 -40 0 -15 69 -74 87 -74 8 0 11 -4 8 -10
-3 -5 -2 -10 4 -10 5 0 18 -13 28 -30 9 -16 23 -30 30 -30 7 0 13 -5 13 -11 0
-12 69 -79 82 -79 4 0 8 -7 8 -15 0 -8 6 -12 14 -9 8 3 18 -7 26 -25 7 -17 18
-31 24 -31 7 0 22 -13 34 -30 13 -16 30 -30 39 -30 9 0 14 -3 11 -6 -4 -3 38
-50 91 -103 54 -54 100 -105 104 -114 4 -10 13 -17 21 -17 8 0 30 -18 47 -40
18 -22 39 -40 46 -40 8 0 12 -4 9 -9 -8 -12 21 -34 34 -26 6 4 10 3 9 -2 -3
-19 2 -33 12 -33 6 0 24 -9 40 -21 16 -11 29 -18 29 -14 0 3 15 -8 33 -24 17
-17 38 -31 45 -31 6 0 12 -5 12 -11 0 -5 4 -8 9 -5 5 3 32 -5 61 -18 28 -13
62 -23 76 -21 13 1 21 -1 19 -5 -3 -5 3 -12 13 -16 29 -14 876 -17 930 -4 26
7 66 14 90 17 27 3 42 10 42 19 0 8 7 14 16 14 8 0 12 -4 9 -10 -3 -5 -1 -10
4 -10 6 0 16 9 23 20 7 11 23 20 35 20 13 0 22 3 22 8 -3 19 2 25 11 12 8 -13
10 -12 10 3 0 9 4 17 8 17 5 0 16 19 26 41 14 32 17 57 13 107 -3 37 -10 68
-16 70 -6 2 -9 8 -5 13 3 5 -2 12 -10 15 -9 3 -16 10 -16 15 0 4 7 6 15 3 22
-9 18 9 -5 24 -12 7 -18 17 -15 22 4 6 10 8 15 5 5 -3 19 -1 30 5 19 10 -19
51 -449 482 -331 331 -468 475 -464 486 4 9 2 13 -4 9 -5 -4 -19 1 -29 9 -18
15 -18 15 0 10 15 -5 17 -2 12 19 -4 17 -3 23 6 20 10 -4 12 6 10 39 -4 45 -1
52 47 104 13 14 24 31 25 38 2 15 49 54 65 54 6 0 8 7 5 15 -4 8 -1 15 5 15 6
0 11 7 11 16 0 9 9 18 20 21 11 3 20 11 20 18 0 8 9 17 20 20 11 3 20 13 20
21 0 8 5 14 10 14 6 0 40 28 75 63 36 34 80 75 100 91 19 16 32 33 28 39 -3 6
-1 7 4 4 12 -8 36 17 26 26 -3 4 -1 7 5 7 7 0 26 14 44 30 17 17 35 30 39 30
5 0 8 4 7 9 -2 5 18 25 45 46 26 20 45 40 42 46 -4 5 -2 9 4 9 5 0 31 20 58
45 26 25 51 45 55 45 4 0 8 6 8 13 0 6 14 20 30 29 17 10 38 32 48 49 9 17 28
44 40 60 13 16 21 29 17 29 -4 0 -2 7 5 15 7 8 16 12 21 9 5 -3 9 -2 8 3 -4
20 14 92 22 87 5 -3 10 5 11 18 6 93 5 104 -10 121 -9 10 -17 26 -18 35 -2 9
-8 18 -14 20 -5 2 -8 8 -4 13 3 5 2 8 -3 7 -5 -2 -22 9 -38 25 -16 15 -39 27
-51 27 -12 0 -38 7 -57 15 -20 8 -49 15 -65 15 -15 0 -33 5 -39 11 -6 6 -12 7
-14 2z"/>
<path d="M15330 4330 c0 -5 5 -10 11 -10 5 0 7 5 4 10 -3 6 -8 10 -11 10 -2 0
-4 -4 -4 -10z"/>
</g>
</svg>
