<svg id="Icon_5" data-name="Icon 5" xmlns="http://www.w3.org/2000/svg" xmlns:xlink="http://www.w3.org/1999/xlink" width="26" height="26" viewBox="0 0 26 26">
  <defs>
    <clipPath id="clip-path">
      <path id="Color" d="M16.25,21.666h-13A3.253,3.253,0,0,1,0,18.417v-13A3.254,3.254,0,0,1,3.25,2.166H4.333V1.083a1.084,1.084,0,0,1,2.167,0V2.166H13V1.083a1.084,1.084,0,0,1,2.167,0V2.166H16.25A3.254,3.254,0,0,1,19.5,5.417v13A3.253,3.253,0,0,1,16.25,21.666ZM2.166,11.916v6.5A1.084,1.084,0,0,0,3.25,19.5h13a1.084,1.084,0,0,0,1.083-1.083v-6.5ZM3.25,4.333A1.085,1.085,0,0,0,2.166,5.417V9.75H17.334V5.417A1.085,1.085,0,0,0,16.25,4.333H15.167V5.417a1.084,1.084,0,0,1-2.167,0V4.333H6.5V5.417a1.084,1.084,0,0,1-2.167,0V4.333ZM14.083,16.25H9.75a1.084,1.084,0,0,1,0-2.167h4.333a1.084,1.084,0,1,1,0,2.167Zm-8.666,0A1.084,1.084,0,1,1,6.5,15.167,1.085,1.085,0,0,1,5.417,16.25Z" transform="translate(0 0)"/>
    </clipPath>
  </defs>
  <g id="Group_215" data-name="Group 215" transform="translate(3.25 2.167)">
    <path id="Color-2" data-name="Color" d="M16.25,21.666h-13A3.253,3.253,0,0,1,0,18.417v-13A3.254,3.254,0,0,1,3.25,2.166H4.333V1.083a1.084,1.084,0,0,1,2.167,0V2.166H13V1.083a1.084,1.084,0,0,1,2.167,0V2.166H16.25A3.254,3.254,0,0,1,19.5,5.417v13A3.253,3.253,0,0,1,16.25,21.666ZM2.166,11.916v6.5A1.084,1.084,0,0,0,3.25,19.5h13a1.084,1.084,0,0,0,1.083-1.083v-6.5ZM3.25,4.333A1.085,1.085,0,0,0,2.166,5.417V9.75H17.334V5.417A1.085,1.085,0,0,0,16.25,4.333H15.167V5.417a1.084,1.084,0,0,1-2.167,0V4.333H6.5V5.417a1.084,1.084,0,0,1-2.167,0V4.333ZM14.083,16.25H9.75a1.084,1.084,0,0,1,0-2.167h4.333a1.084,1.084,0,1,1,0,2.167Zm-8.666,0A1.084,1.084,0,1,1,6.5,15.167,1.085,1.085,0,0,1,5.417,16.25Z" transform="translate(0 0)" opacity="0.2"/>
  </g>
</svg>
