<svg id="Icon_3" data-name="Icon 3" xmlns="http://www.w3.org/2000/svg" xmlns:xlink="http://www.w3.org/1999/xlink" width="26" height="26" viewBox="0 0 26 26">
  <defs>
    <clipPath id="clip-path">
      <path id="Color" d="M13.356,17.335a2.208,2.208,0,0,1-.222-.011,2.145,2.145,0,0,1-1.907-1.715L8.321,2.185,5.328,9.1a1.085,1.085,0,0,1-.995.653H1.083a1.083,1.083,0,1,1,0-2.167H3.623L6.338,1.314A2.121,2.121,0,0,1,8.532.012a2.145,2.145,0,0,1,1.907,1.715l2.907,13.425,2.993-6.914a1.083,1.083,0,0,1,.995-.652h3.25a1.083,1.083,0,1,1,0,2.167H18.044l-2.715,6.27a2.132,2.132,0,0,1-1.973,1.313" transform="translate(0 0)" stroke="#707070" stroke-width="1"/>
    </clipPath>
  </defs>
  <g id="Group_103" data-name="Group 103" transform="translate(2.167 4.332)">
    <path id="Color-2" data-name="Color" d="M13.356,17.335a2.208,2.208,0,0,1-.222-.011,2.145,2.145,0,0,1-1.907-1.715L8.321,2.185,5.328,9.1a1.085,1.085,0,0,1-.995.653H1.083a1.083,1.083,0,1,1,0-2.167H3.623L6.338,1.314A2.121,2.121,0,0,1,8.532.012a2.145,2.145,0,0,1,1.907,1.715l2.907,13.425,2.993-6.914a1.083,1.083,0,0,1,.995-.652h3.25a1.083,1.083,0,1,1,0,2.167H18.044l-2.715,6.27a2.132,2.132,0,0,1-1.973,1.313" transform="translate(0 0)" stroke="#707070" stroke-width="1" opacity="0.2"/>
  </g>
</svg>
