<svg id="Icon_7" data-name="Icon 7" xmlns="http://www.w3.org/2000/svg" xmlns:xlink="http://www.w3.org/1999/xlink" width="26" height="26" viewBox="0 0 26 26">
  <defs>
    <clipPath id="clip-path">
      <path id="Color" d="M10.833,21.666A10.834,10.834,0,0,1,7.223.618a1.082,1.082,0,1,1,.721,2.041A8.669,8.669,0,1,0,19.007,13.722a1.083,1.083,0,0,1,2.043.721A10.853,10.853,0,0,1,10.833,21.666Zm9.75-10.833H11.916A1.084,1.084,0,0,1,10.833,9.75V1.083A1.084,1.084,0,0,1,11.916,0a9.761,9.761,0,0,1,9.75,9.75A1.084,1.084,0,0,1,20.583,10.833ZM13,2.243V8.667h6.423A7.62,7.62,0,0,0,13,2.243Z" transform="translate(0 0)"/>
    </clipPath>
  </defs>
  <g id="Group_64" data-name="Group 64" transform="translate(2.167 2.167)">
    <path id="Color-2" data-name="Color" d="M10.833,21.666A10.834,10.834,0,0,1,7.223.618a1.082,1.082,0,1,1,.721,2.041A8.669,8.669,0,1,0,19.007,13.722a1.083,1.083,0,0,1,2.043.721A10.853,10.853,0,0,1,10.833,21.666Zm9.75-10.833H11.916A1.084,1.084,0,0,1,10.833,9.75V1.083A1.084,1.084,0,0,1,11.916,0a9.761,9.761,0,0,1,9.75,9.75A1.084,1.084,0,0,1,20.583,10.833ZM13,2.243V8.667h6.423A7.62,7.62,0,0,0,13,2.243Z" transform="translate(0 0)" opacity="0.2"/>
  </g>
</svg>
