<svg id="Icon_2" data-name="Icon 2" xmlns="http://www.w3.org/2000/svg" xmlns:xlink="http://www.w3.org/1999/xlink" width="26" height="26" viewBox="0 0 26 26">
  <defs>
    <clipPath id="clip-path">
      <path id="Color" d="M10.068,19.182l-3.25-3.25A1.083,1.083,0,0,1,8.35,14.4l1.4,1.4V9.75a1.084,1.084,0,0,1,2.167,0v6.114L13.331,14.5a1.084,1.084,0,0,1,1.505,1.559L11.587,19.2a1.093,1.093,0,0,1-.753.3A1.076,1.076,0,0,1,10.068,19.182ZM1.355,13.335A5.418,5.418,0,0,1,4.686,4.382a6.5,6.5,0,0,1,12.3,0,5.419,5.419,0,0,1,3.331,8.953A1.084,1.084,0,1,1,18.689,11.9,3.25,3.25,0,0,0,16.25,6.5h-.108A1.084,1.084,0,0,1,15.08,5.63a4.335,4.335,0,0,0-8.492,0A1.085,1.085,0,0,1,5.525,6.5H5.417A3.249,3.249,0,0,0,2.98,11.9a1.084,1.084,0,1,1-1.624,1.436Z"/>
    </clipPath>
  </defs>
  <g id="Group_133" data-name="Group 133" transform="translate(2.166 3.25)">
    <path id="Color-2" data-name="Color" d="M10.068,19.182l-3.25-3.25A1.083,1.083,0,0,1,8.35,14.4l1.4,1.4V9.75a1.084,1.084,0,0,1,2.167,0v6.114L13.331,14.5a1.084,1.084,0,0,1,1.505,1.559L11.587,19.2a1.093,1.093,0,0,1-.753.3A1.076,1.076,0,0,1,10.068,19.182ZM1.355,13.335A5.418,5.418,0,0,1,4.686,4.382a6.5,6.5,0,0,1,12.3,0,5.419,5.419,0,0,1,3.331,8.953A1.084,1.084,0,1,1,18.689,11.9,3.25,3.25,0,0,0,16.25,6.5h-.108A1.084,1.084,0,0,1,15.08,5.63a4.335,4.335,0,0,0-8.492,0A1.085,1.085,0,0,1,5.525,6.5H5.417A3.249,3.249,0,0,0,2.98,11.9a1.084,1.084,0,1,1-1.624,1.436Z" opacity="0.2"/>
  </g>
</svg>
