<svg id="Icon_6" data-name="Icon 6" xmlns="http://www.w3.org/2000/svg" xmlns:xlink="http://www.w3.org/1999/xlink" width="26" height="26" viewBox="0 0 26 26">
  <defs>
    <clipPath id="clip-path">
      <path id="Color" d="M8.12,19.493H8.112a7.976,7.976,0,0,1-5.741-2.429A8.37,8.37,0,0,1,2.362,5.4L3.426,4.322A1.088,1.088,0,0,1,4.2,4a1.11,1.11,0,0,1,.28.036,1.087,1.087,0,0,1,.766.775,3.9,3.9,0,0,0,.71,1.616c.417-.439,1.08-2.133,1.08-4.812,0-.159,0-.31-.009-.46A1.082,1.082,0,0,1,7.361.3,1.1,1.1,0,0,1,8.125,0a1.059,1.059,0,0,1,.768.321L13.865,5.4a8.358,8.358,0,0,1,.011,11.665A8.01,8.01,0,0,1,8.12,19.493ZM3.78,7.051a6.2,6.2,0,0,0,.139,8.5,5.836,5.836,0,0,0,4.194,1.777H8.12a5.861,5.861,0,0,0,4.208-1.777,6.187,6.187,0,0,0-.01-8.633L9.084,3.612C8.7,6.773,7.528,8.66,5.952,8.66A2.488,2.488,0,0,1,3.78,7.051Z" transform="translate(0 0)"/>
    </clipPath>
  </defs>
  <g id="Group_209" data-name="Group 209" transform="translate(4.34 3.258)">
    <path id="Color-2" data-name="Color" d="M8.12,19.493H8.112a7.976,7.976,0,0,1-5.741-2.429A8.37,8.37,0,0,1,2.362,5.4L3.426,4.322A1.088,1.088,0,0,1,4.2,4a1.11,1.11,0,0,1,.28.036,1.087,1.087,0,0,1,.766.775,3.9,3.9,0,0,0,.71,1.616c.417-.439,1.08-2.133,1.08-4.812,0-.159,0-.31-.009-.46A1.082,1.082,0,0,1,7.361.3,1.1,1.1,0,0,1,8.125,0a1.059,1.059,0,0,1,.768.321L13.865,5.4a8.358,8.358,0,0,1,.011,11.665A8.01,8.01,0,0,1,8.12,19.493ZM3.78,7.051a6.2,6.2,0,0,0,.139,8.5,5.836,5.836,0,0,0,4.194,1.777H8.12a5.861,5.861,0,0,0,4.208-1.777,6.187,6.187,0,0,0-.01-8.633L9.084,3.612C8.7,6.773,7.528,8.66,5.952,8.66A2.488,2.488,0,0,1,3.78,7.051Z" transform="translate(0 0)" opacity="0.2"/>
  </g>
</svg>
