<svg id="Icon_4" data-name="Icon 4" xmlns="http://www.w3.org/2000/svg" xmlns:xlink="http://www.w3.org/1999/xlink" width="26" height="26" viewBox="0 0 26 26">
  <defs>
    <clipPath id="clip-path">
      <path id="Color" d="M16.25,19.5h-13A3.253,3.253,0,0,1,0,16.25v-13A3.253,3.253,0,0,1,3.25,0h13A3.253,3.253,0,0,1,19.5,3.25v13A3.253,3.253,0,0,1,16.25,19.5Zm-4.3-8.668a.791.791,0,0,0-.507.169L3.858,17.334H16.25a1.084,1.084,0,0,0,1.083-1.083V15.16L12.458,11A.78.78,0,0,0,11.954,10.832ZM3.25,2.166A1.084,1.084,0,0,0,2.166,3.25V15.923L10.05,9.344a3.009,3.009,0,0,1,3.813.007l3.47,2.96V3.25A1.084,1.084,0,0,0,16.25,2.166ZM5.417,7.584A1.625,1.625,0,1,1,7.041,5.958,1.627,1.627,0,0,1,5.417,7.584Z"/>
    </clipPath>
  </defs>
  <g id="Group_59" data-name="Group 59" transform="translate(3.25 3.25)">
    <path id="Color-2" data-name="Color" d="M16.25,19.5h-13A3.253,3.253,0,0,1,0,16.25v-13A3.253,3.253,0,0,1,3.25,0h13A3.253,3.253,0,0,1,19.5,3.25v13A3.253,3.253,0,0,1,16.25,19.5Zm-4.3-8.668a.791.791,0,0,0-.507.169L3.858,17.334H16.25a1.084,1.084,0,0,0,1.083-1.083V15.16L12.458,11A.78.78,0,0,0,11.954,10.832ZM3.25,2.166A1.084,1.084,0,0,0,2.166,3.25V15.923L10.05,9.344a3.009,3.009,0,0,1,3.813.007l3.47,2.96V3.25A1.084,1.084,0,0,0,16.25,2.166ZM5.417,7.584A1.625,1.625,0,1,1,7.041,5.958,1.627,1.627,0,0,1,5.417,7.584Z" opacity="0.2"/>
  </g>
</svg>
