<svg id="Logo" xmlns="http://www.w3.org/2000/svg" width="36" height="36" viewBox="0 0 36 36">
  <g id="Craftwork_Logo" data-name="Craftwork Logo">
    <path id="Logo-2" data-name="Logo" d="M18,36A18,18,0,0,1,10.993,1.414,18,18,0,0,1,25.007,34.586,17.888,17.888,0,0,1,18,36Zm7.96-20.206c-2.865,1.361-4.481,2.639-5.4,4.274-.894,1.583-1.156,3.557-.875,6.6,2.786-1.41,4.294-2.587,5.206-4.062C25.875,21.007,26.206,18.905,25.96,15.794Zm-15.73,0c-.247,3.111.084,5.212,1.073,6.813.911,1.475,2.419,2.652,5.206,4.062.281-3.044.019-5.018-.875-6.6C14.71,18.433,13.094,17.155,10.229,15.794ZM18.084,8c-1.769,2.571-2.533,4.556-2.477,6.437.052,1.733.769,3.507,2.477,6.121,1.765-2.5,2.526-4.337,2.543-6.155C20.645,12.526,19.884,10.611,18.084,8Z"/>
  </g>
</svg>
