<svg id="Icon_1" data-name="Icon 1" xmlns="http://www.w3.org/2000/svg" width="26" height="26" viewBox="0 0 26 26">
  <path id="Color" d="M15.089,21.666a1.184,1.184,0,0,1-1.16-1.2,5.921,5.921,0,0,0-5.8-6.019,5.921,5.921,0,0,0-5.8,6.019,1.184,1.184,0,0,1-1.161,1.2A1.184,1.184,0,0,1,0,20.463a8.289,8.289,0,0,1,8.125-8.426,8.289,8.289,0,0,1,8.126,8.426A1.184,1.184,0,0,1,15.089,21.666ZM8.125,9.63A4.737,4.737,0,0,1,3.482,4.815,4.736,4.736,0,0,1,8.125,0a4.736,4.736,0,0,1,4.643,4.815A4.737,4.737,0,0,1,8.125,9.63Zm0-7.223A2.368,2.368,0,0,0,5.8,4.815,2.368,2.368,0,0,0,8.125,7.222a2.368,2.368,0,0,0,2.321-2.407A2.368,2.368,0,0,0,8.125,2.407Z" transform="translate(4.333 2.167)" opacity="0.2"/>
</svg>
